<?xml version="1.0" encoding="utf-8"?>
<!-- Generator: Adobe Illustrator 28.2.0, SVG Export Plug-In . SVG Version: 6.00 Build 0)  -->
<svg version="1.1" id="Layer_1" xmlns="http://www.w3.org/2000/svg" xmlns:xlink="http://www.w3.org/1999/xlink" x="0px" y="0px"
	 viewBox="0 0 81.2 81.1" style="enable-background:new 0 0 81.2 81.1;" xml:space="preserve">
<style type="text/css">
	.st0{fill:#5E65AD;}
	.st1{fill:#E45025;}
</style>
<g>
	<path class="st0" d="M40.6,0H6.8C3.1,0,0,3.1,0,6.8v7c2.7-1.1,5.6-1.6,8.7-1.6c6.3,0,12.1,2.5,16.4,6.5c4.3-4,10.1-6.5,16.4-6.5
		c13.2,0,23.9,10.7,23.9,23.9V58c0,4.1-3.4,7.5-7.5,7.5s-7.5-3.4-7.5-7.5V36c0-4.9-4-8.9-8.9-8.9s-8.9,4-8.9,8.9v22
		c0,4.1-3.4,7.5-7.5,7.5s-7.5-3.4-7.5-7.5V36c0-4.9-4-8.9-8.9-8.9c-4.2,0-7.8,3-8.7,6.9v40.3c0,3.8,3.1,6.8,6.8,6.8h33.8
		C63,81.2,81.2,63,81.2,40.6l0,0C81.2,18.2,63,0,40.6,0z"/>
	<circle class="st1" cx="57.9" cy="57.6" r="5.3"/>
</g>
</svg>
