<?xml version="1.0" encoding="utf-8"?>
<!-- Generator: Adobe Illustrator 28.2.0, SVG Export Plug-In . SVG Version: 6.00 Build 0)  -->
<svg version="1.1" id="Layer_1" xmlns="http://www.w3.org/2000/svg" xmlns:xlink="http://www.w3.org/1999/xlink" x="0px" y="0px"
	 viewBox="0 0 294 81.2" style="enable-background:new 0 0 294 81.2;" xml:space="preserve">
<style type="text/css">
	.st0{fill:#231F20;}
	.st1{fill:#6161FF;}
	.st2{fill:#E64F25;}
</style>
<g>
	<path class="st0" d="M113.9,13.4c1.7,0.9,3,2.1,3.9,3.8c0.9,1.6,1.4,3.5,1.4,5.6s-0.5,4-1.4,5.6s-2.2,2.8-3.9,3.7
		c-1.7,0.9-3.7,1.3-5.9,1.3h-7.5V12.1h7.5C110.2,12.1,112.2,12.6,113.9,13.4z M113,28c1.2-1.2,1.8-2.9,1.8-5.2c0-2.2-0.6-4-1.8-5.2
		s-3-1.9-5.2-1.9h-3v14.1h3C110,29.9,111.8,29.2,113,28z"/>
	<path class="st0" d="M125.6,32.7c-1.3-0.7-2.3-1.8-3.1-3.1c-0.7-1.3-1.1-2.9-1.1-4.6s0.4-3.3,1.1-4.6c0.8-1.3,1.8-2.4,3.1-3.1
		c1.3-0.7,2.8-1.1,4.4-1.1s3.1,0.4,4.4,1.1c1.3,0.7,2.4,1.8,3.1,3.1c0.8,1.3,1.1,2.9,1.1,4.6s-0.4,3.3-1.2,4.6
		c-0.8,1.3-1.8,2.4-3.2,3.1c-1.3,0.7-2.8,1.1-4.5,1.1C128.3,33.8,126.9,33.4,125.6,32.7z M132.2,29.5c0.7-0.4,1.2-0.9,1.6-1.7
		c0.4-0.8,0.6-1.7,0.6-2.8c0-1.6-0.4-2.9-1.3-3.7c-0.8-0.9-1.9-1.3-3.1-1.3c-1.2,0-2.2,0.4-3.1,1.3c-0.8,0.9-1.2,2.1-1.2,3.7
		s0.4,2.9,1.2,3.7c0.8,0.9,1.8,1.3,3,1.3C130.7,30,131.5,29.9,132.2,29.5z"/>
	<path class="st0" d="M168.1,18.2c1.3,1.3,1.9,3.1,1.9,5.3v10h-4.3v-9.4c0-1.3-0.3-2.3-1-3s-1.6-1.1-2.8-1.1s-2.1,0.4-2.8,1.1
		s-1,1.7-1,3v9.4h-4.3v-9.4c0-1.3-0.3-2.3-1-3S151.2,20,150,20s-2.1,0.4-2.8,1.1s-1,1.7-1,3v9.4H142v-17h4.3v2.1
		c0.6-0.7,1.3-1.3,2.1-1.7c0.9-0.4,1.8-0.6,2.9-0.6c1.3,0,2.5,0.3,3.6,0.8c1,0.6,1.8,1.4,2.4,2.4c0.6-1,1.4-1.8,2.4-2.4
		c1.1-0.6,2.2-0.9,3.4-0.9C165.1,16.3,166.8,16.9,168.1,18.2z"/>
	<path class="st0" d="M174,20.4c0.7-1.3,1.6-2.3,2.8-3.1c1.2-0.7,2.5-1.1,3.9-1.1c1.3,0,2.4,0.3,3.3,0.8s1.7,1.2,2.3,1.9v-2.4h4.3
		v17h-4.3V31c-0.6,0.8-1.3,1.5-2.3,2s-2.1,0.8-3.4,0.8c-1.4,0-2.7-0.4-3.9-1.1c-1.2-0.7-2.1-1.8-2.8-3.1c-0.7-1.3-1-2.9-1-4.6
		C173,23.2,173.3,21.7,174,20.4z M185.7,22.3c-0.4-0.7-1-1.3-1.7-1.7s-1.4-0.6-2.2-0.6s-1.5,0.2-2.2,0.6s-1.2,1-1.6,1.7
		c-0.4,0.7-0.6,1.6-0.6,2.6s0.2,1.9,0.6,2.7s1,1.4,1.7,1.8s1.4,0.6,2.2,0.6s1.5-0.2,2.2-0.6s1.2-1,1.7-1.7c0.4-0.7,0.6-1.6,0.6-2.7
		S186.1,23.1,185.7,22.3z"/>
	<path class="st0" d="M195.1,13.8c-0.5-0.5-0.8-1.1-0.8-1.8s0.2-1.3,0.8-1.8c0.5-0.5,1.1-0.7,1.9-0.7c0.8,0,1.4,0.2,1.9,0.7
		s0.8,1.1,0.8,1.8s-0.2,1.3-0.8,1.8c-0.5,0.5-1.1,0.7-1.9,0.7C196.2,14.5,195.6,14.3,195.1,13.8z M199.1,16.5v17h-4.3v-17H199.1z"/>
	<path class="st0" d="M217.6,18.2c1.2,1.3,1.9,3.1,1.9,5.3v10h-4.3v-9.4c0-1.3-0.3-2.4-1-3.1s-1.6-1.1-2.8-1.1s-2.1,0.4-2.8,1.1
		s-1,1.8-1,3.1v9.4h-4.3v-17h4.3v2.1c0.6-0.7,1.3-1.3,2.2-1.7c0.9-0.4,1.9-0.6,2.9-0.6C214.7,16.3,216.4,16.9,217.6,18.2z"/>
	<path class="st0" d="M123.8,48.9v21.4h-4.3v-14l-5.7,13.9h-3.2l-5.8-13.9v13.9h-4.3V48.9h4.9l6.8,15.9l6.8-15.9H123.8z"/>
	<path class="st0" d="M127.9,57.1c0.7-1.3,1.6-2.3,2.8-3.1c1.2-0.7,2.5-1.1,3.9-1.1c1.3,0,2.4,0.3,3.3,0.8s1.7,1.2,2.3,1.9v-2.4h4.3
		v17h-4.3v-2.5c-0.6,0.8-1.3,1.5-2.3,2s-2.1,0.8-3.4,0.8c-1.4,0-2.7-0.4-3.9-1.1s-2.1-1.8-2.8-3.1c-0.7-1.3-1-2.9-1-4.6
		C126.9,60,127.2,58.5,127.9,57.1z M139.6,59.1c-0.4-0.7-1-1.3-1.7-1.7s-1.4-0.6-2.2-0.6s-1.5,0.2-2.2,0.6c-0.7,0.4-1.2,1-1.6,1.7
		c-0.4,0.7-0.6,1.6-0.6,2.6s0.2,1.9,0.6,2.7s1,1.4,1.7,1.8s1.4,0.6,2.2,0.6s1.5-0.2,2.2-0.6s1.2-1,1.7-1.7c0.4-0.7,0.6-1.6,0.6-2.7
		S140,59.8,139.6,59.1z"/>
	<path class="st0" d="M155.2,53.8c0.9-0.5,1.9-0.8,3-0.8v4.5h-1.1c-1.3,0-2.4,0.3-3,0.9c-0.7,0.6-1,1.7-1,3.3v8.5h-4.3v-17h4.3v2.6
		C153.6,55,154.3,54.3,155.2,53.8z"/>
	<path class="st0" d="M171.2,70.2l-5.8-7.2v7.2h-4.3V47.6h4.3v12.9l5.7-7.2h5.6l-7.5,8.5l7.5,8.5h-5.5V70.2z"/>
	<path class="st0" d="M194.7,63h-12.4c0.1,1.2,0.5,2.2,1.3,2.9c0.8,0.7,1.7,1,2.8,1c1.6,0,2.7-0.7,3.4-2.1h4.6c-0.5,1.6-1.4,3-2.8,4
		c-1.4,1.1-3.1,1.6-5.1,1.6c-1.6,0-3.1-0.4-4.4-1.1c-1.3-0.7-2.3-1.8-3-3.1s-1.1-2.9-1.1-4.6c0-1.8,0.4-3.3,1.1-4.6
		c0.7-1.3,1.7-2.3,3-3.1c1.3-0.7,2.8-1.1,4.4-1.1c1.6,0,3.1,0.3,4.3,1c1.3,0.7,2.3,1.7,3,3s1.1,2.7,1.1,4.4
		C194.8,62,194.7,62.6,194.7,63z M190.3,60.2c0-1.1-0.4-2-1.2-2.6c-0.8-0.7-1.7-1-2.8-1s-2,0.3-2.7,1c-0.7,0.6-1.2,1.5-1.3,2.7h8
		V60.2z"/>
	<path class="st0" d="M202.9,56.8V65c0,0.6,0.1,1,0.4,1.2c0.3,0.3,0.7,0.4,1.4,0.4h2v3.6H204c-3.6,0-5.4-1.8-5.4-5.3v-8.2h-2v-3.5h2
		V49h4.3v4.2h3.8v3.5L202.9,56.8L202.9,56.8L202.9,56.8z"/>
	<path class="st0" d="M216.4,53.8c1-0.5,2.1-0.8,3.3-0.8c1.4,0,2.8,0.4,3.9,1.1c1.2,0.7,2.1,1.7,2.8,3s1,2.8,1,4.6
		c0,1.7-0.3,3.3-1,4.6c-0.7,1.3-1.6,2.4-2.8,3.1s-2.5,1.1-3.9,1.1c-1.2,0-2.3-0.3-3.3-0.8c-0.9-0.5-1.7-1.2-2.3-1.9v10.5h-4.3v-25
		h4.3v2.4C214.6,55,215.4,54.3,216.4,53.8z M222.4,59c-0.4-0.7-1-1.3-1.7-1.7s-1.4-0.6-2.2-0.6s-1.5,0.2-2.2,0.6s-1.2,1-1.7,1.7
		c-0.4,0.8-0.6,1.6-0.6,2.7c0,1,0.2,1.9,0.6,2.7c0.4,0.8,1,1.3,1.7,1.7s1.4,0.6,2.2,0.6s1.5-0.2,2.2-0.6s1.2-1,1.7-1.7
		c0.4-0.8,0.6-1.7,0.6-2.7S222.8,59.8,222.4,59z"/>
	<path class="st0" d="M234.8,47.6v22.7h-4.3V47.6H234.8z"/>
	<path class="st0" d="M239,57.1c0.7-1.3,1.6-2.3,2.8-3.1c1.2-0.7,2.5-1.1,3.9-1.1c1.3,0,2.4,0.3,3.3,0.8c0.9,0.5,1.7,1.2,2.3,1.9
		v-2.4h4.3v17h-4.3v-2.5c-0.6,0.8-1.3,1.5-2.3,2s-2.1,0.8-3.4,0.8c-1.4,0-2.7-0.4-3.9-1.1s-2.1-1.8-2.8-3.1c-0.7-1.3-1-2.9-1-4.6
		C238,60,238.3,58.5,239,57.1z M250.7,59.1c-0.4-0.7-1-1.3-1.7-1.7s-1.4-0.6-2.2-0.6s-1.5,0.2-2.2,0.6c-0.7,0.4-1.2,1-1.6,1.7
		c-0.4,0.7-0.6,1.6-0.6,2.6s0.2,1.9,0.6,2.7c0.4,0.8,1,1.4,1.7,1.8s1.4,0.6,2.2,0.6s1.5-0.2,2.2-0.6s1.2-1,1.7-1.7
		c0.4-0.7,0.6-1.6,0.6-2.7S251.1,59.8,250.7,59.1z"/>
	<path class="st0" d="M259.8,57.2c0.7-1.3,1.7-2.3,3-3.1c1.3-0.7,2.7-1.1,4.3-1.1c2.1,0,3.8,0.5,5.2,1.6s2.3,2.5,2.8,4.4h-4.6
		c-0.2-0.7-0.7-1.3-1.2-1.7s-1.3-0.6-2.2-0.6c-1.2,0-2.2,0.4-2.9,1.3c-0.7,0.9-1.1,2.1-1.1,3.8c0,1.6,0.4,2.9,1.1,3.8
		s1.7,1.3,2.9,1.3c1.7,0,2.9-0.8,3.4-2.3h4.6c-0.5,1.8-1.4,3.3-2.8,4.4s-3.1,1.6-5.2,1.6c-1.6,0-3.1-0.4-4.3-1.1
		c-1.3-0.7-2.3-1.7-3-3.1c-0.7-1.3-1.1-2.9-1.1-4.6C258.7,60,259.1,58.5,259.8,57.2z"/>
	<path class="st0" d="M293.9,63h-12.4c0.1,1.2,0.5,2.2,1.3,2.9s1.7,1,2.8,1c1.6,0,2.7-0.7,3.4-2.1h4.6c-0.5,1.6-1.4,3-2.8,4
		c-1.4,1.1-3.1,1.6-5.1,1.6c-1.6,0-3.1-0.4-4.4-1.1s-2.3-1.8-3-3.1c-0.7-1.3-1.1-2.9-1.1-4.6c0-1.8,0.4-3.3,1.1-4.6s1.7-2.3,3-3.1
		c1.3-0.7,2.8-1.1,4.4-1.1s3.1,0.3,4.3,1c1.3,0.7,2.3,1.7,3,3s1.1,2.7,1.1,4.4C294,62,294,62.6,293.9,63z M289.6,60.2
		c0-1.1-0.4-2-1.2-2.6c-0.8-0.7-1.7-1-2.8-1c-1.1,0-2,0.3-2.7,1c-0.7,0.6-1.2,1.5-1.3,2.7h8V60.2z"/>
</g>
<text transform="matrix(1 0 0 1 98.3689 -158.1864)" class="st0" style="font-family:'Poppins-SemiBold'; font-size:30.6175px;">Domain</text>
<text transform="matrix(1 0 0 1 98.3689 -121.4864)" class="st0" style="font-family:'Poppins-SemiBold'; font-size:30.6175px;">Marketplace</text>
<g>
	<path class="st1" d="M40.6,0H6.8C3.1,0,0,3.1,0,6.8v7c2.7-1.1,5.6-1.6,8.7-1.6c6.3,0,12.1,2.5,16.4,6.5c4.3-4,10.1-6.5,16.4-6.5
		c13.2,0,23.9,10.7,23.9,23.9V58c0,4.1-3.4,7.5-7.5,7.5s-7.5-3.4-7.5-7.5V36c0-4.9-4-8.9-8.9-8.9s-8.9,4-8.9,8.9v22
		c0,4.1-3.4,7.5-7.5,7.5s-7.5-3.4-7.5-7.5V36c0-4.9-4-8.9-8.9-8.9c-4.2,0-7.8,3-8.7,6.9v40.3c0,3.8,3.1,6.8,6.8,6.8h33.8
		C63,81.2,81.2,63,81.2,40.6l0,0C81.2,18.2,63,0,40.6,0z"/>
	<circle class="st2" cx="57.9" cy="57.6" r="5.3"/>
</g>
</svg>
